<?xml version="1.0" standalone="no"?><!DOCTYPE svg PUBLIC "-//W3C//DTD SVG 1.1//EN" "http://www.w3.org/Graphics/SVG/1.1/DTD/svg11.dtd"><svg t="1777650890646" class="icon" viewBox="0 0 1024 1024" version="1.1" xmlns="http://www.w3.org/2000/svg" p-id="32896" xmlns:xlink="http://www.w3.org/1999/xlink" width="200" height="200"><path d="M490.977314 410.40635V343.978501H422.373602v69.627649h68.603712v-3.1998z m0-275.374789V69.691644H422.373602v69.627649h68.603712v-4.287732z m0-134.967565v69.627648h68.47572V0.063996H921.542404A102.3936 102.3936 0 0 1 1023.936004 102.457596v819.148804a102.3936 102.3936 0 0 1-102.3936 102.3936H102.3936A102.3936 102.3936 0 0 1 0 921.6064V102.457596A102.3936 102.3936 0 0 1 102.3936 0.063996h388.583714z m0 135.031561v69.563652h68.47572V135.095557h-68.47572zM422.373602 204.595213v69.691644h68.603712V204.723205H422.373602z m68.603712 69.691644v69.627648h68.47572V274.350853h-68.47572z m0 136.055497V480.033998h68.47572V410.40635h-68.47572z m-34.301856 236.785201h68.539716V716.819199H456.675458v-69.627648zM422.373602 513.247922v244.272733h137.143428V513.247922H422.373602z" fill="#FFA940" p-id="32897"></path></svg>